<svg xmlns="http://www.w3.org/2000/svg" xmlns:xlink="http://www.w3.org/1999/xlink" width="200" zoomAndPan="magnify" viewBox="0 0 150 74.999997" height="100" preserveAspectRatio="xMidYMid meet" version="1.2"><defs><clipPath id="a438a03bfe"><path d="M 126 34 L 137.753906 34 L 137.753906 51 L 126 51 Z M 126 34 "/></clipPath></defs><g id="639820258f"><g clip-rule="nonzero" clip-path="url(#a438a03bfe)"><path style=" stroke:none;fill-rule:nonzero;fill:#18cb96;fill-opacity:1;" d="M 137.546875 42.46875 L 129.65625 34.5 C 128.132812 32.960938 125.003906 35.808594 126.839844 37.601562 L 131.832031 42.46875 L 126.679688 47.257812 C 125.109375 48.71875 128.015625 51.710938 129.578125 50.199219 Z M 137.546875 42.46875 "/></g><g style="fill:#373643;fill-opacity:1;"><g transform="translate(1.474545, 51.207437)"><path style="stroke:none" d="M 1.9375 0 L 1.9375 -27.75 L 7.640625 -27.75 L 7.640625 0 Z M 1.9375 0 "/></g></g><g style="fill:#373643;fill-opacity:1;"><g transform="translate(8.021286, 51.207437)"><path style="stroke:none" d="M 2.484375 -25.78125 C 3.148438 -26.445312 3.945312 -26.78125 4.875 -26.78125 C 5.800781 -26.78125 6.597656 -26.445312 7.265625 -25.78125 C 7.929688 -25.113281 8.265625 -24.316406 8.265625 -23.390625 C 8.265625 -22.460938 7.929688 -21.664062 7.265625 -21 C 6.597656 -20.332031 5.800781 -20 4.875 -20 C 3.945312 -20 3.148438 -20.332031 2.484375 -21 C 1.816406 -21.664062 1.484375 -22.460938 1.484375 -23.390625 C 1.484375 -24.316406 1.816406 -25.113281 2.484375 -25.78125 Z M 1.9375 -16.546875 L 1.9375 0 L 7.640625 0 L 7.640625 -16.546875 Z M 1.9375 -16.546875 "/></g></g><g style="fill:#373643;fill-opacity:1;"><g transform="translate(14.729303, 51.207437)"><path style="stroke:none" d="M 20.84375 -16.546875 L 12.96875 -8.640625 L 21.625 0 L 14.265625 0 L 7.640625 -6.609375 L 7.640625 0 L 1.9375 0 L 1.9375 -27.75 L 7.640625 -27.75 L 7.640625 -10.78125 L 13.421875 -16.546875 Z M 20.84375 -16.546875 "/></g></g><g style="fill:#373643;fill-opacity:1;"><g transform="translate(32.532795, 51.207437)"><path style="stroke:none" d="M 18.6875 -7.484375 L 6.671875 -7.484375 C 6.671875 -6.328125 7.046875 -5.46875 7.796875 -4.90625 C 8.554688 -4.34375 9.378906 -4.0625 10.265625 -4.0625 C 11.179688 -4.0625 11.910156 -4.1875 12.453125 -4.4375 C 12.992188 -4.6875 13.609375 -5.175781 14.296875 -5.90625 L 18.421875 -3.84375 C 16.703125 -0.957031 13.84375 0.484375 9.84375 0.484375 C 7.34375 0.484375 5.195312 -0.367188 3.40625 -2.078125 C 1.625 -3.785156 0.734375 -5.84375 0.734375 -8.25 C 0.734375 -10.664062 1.625 -12.734375 3.40625 -14.453125 C 5.195312 -16.171875 7.34375 -17.03125 9.84375 -17.03125 C 12.46875 -17.03125 14.601562 -16.269531 16.25 -14.75 C 17.894531 -13.238281 18.71875 -11.078125 18.71875 -8.265625 C 18.71875 -7.867188 18.707031 -7.609375 18.6875 -7.484375 Z M 6.84375 -10.640625 L 13.125 -10.640625 C 13 -11.503906 12.660156 -12.164062 12.109375 -12.625 C 11.566406 -13.09375 10.863281 -13.328125 10 -13.328125 C 9.050781 -13.328125 8.296875 -13.078125 7.734375 -12.578125 C 7.179688 -12.085938 6.882812 -11.441406 6.84375 -10.640625 Z M 6.84375 -10.640625 "/></g></g><g style="fill:#373643;fill-opacity:1;"><g transform="translate(48.949352, 51.207437)"><path style="stroke:none" d="M 1.9375 0 L 1.9375 -16.546875 L 7.640625 -16.546875 L 7.640625 -14.8125 L 7.71875 -14.8125 C 9.195312 -16.289062 10.773438 -17.03125 12.453125 -17.03125 C 13.660156 -17.03125 14.789062 -16.78125 15.84375 -16.28125 C 16.894531 -15.789062 17.691406 -15.03125 18.234375 -14 C 19.910156 -16.019531 21.738281 -17.03125 23.71875 -17.03125 C 25.476562 -17.03125 26.992188 -16.535156 28.265625 -15.546875 C 29.535156 -14.554688 30.171875 -13.007812 30.171875 -10.90625 L 30.171875 0 L 24.453125 0 L 24.453125 -9.359375 C 24.453125 -10.242188 24.207031 -10.976562 23.71875 -11.5625 C 23.238281 -12.15625 22.515625 -12.453125 21.546875 -12.453125 C 20.710938 -12.453125 20.070312 -12.195312 19.625 -11.6875 C 19.1875 -11.1875 18.945312 -10.582031 18.90625 -9.875 L 18.90625 0 L 13.203125 0 L 13.203125 -9.359375 C 13.203125 -10.242188 12.957031 -10.976562 12.46875 -11.5625 C 11.988281 -12.15625 11.265625 -12.453125 10.296875 -12.453125 C 9.410156 -12.453125 8.742188 -12.175781 8.296875 -11.625 C 7.859375 -11.082031 7.640625 -10.4375 7.640625 -9.6875 L 7.640625 0 Z M 1.9375 0 "/></g></g><g style="fill:#373643;fill-opacity:1;"><g transform="translate(77.687051, 51.207437)"><path style="stroke:none" d="M 2.484375 -25.78125 C 3.148438 -26.445312 3.945312 -26.78125 4.875 -26.78125 C 5.800781 -26.78125 6.597656 -26.445312 7.265625 -25.78125 C 7.929688 -25.113281 8.265625 -24.316406 8.265625 -23.390625 C 8.265625 -22.460938 7.929688 -21.664062 7.265625 -21 C 6.597656 -20.332031 5.800781 -20 4.875 -20 C 3.945312 -20 3.148438 -20.332031 2.484375 -21 C 1.816406 -21.664062 1.484375 -22.460938 1.484375 -23.390625 C 1.484375 -24.316406 1.816406 -25.113281 2.484375 -25.78125 Z M 1.9375 -16.546875 L 1.9375 0 L 7.640625 0 L 7.640625 -16.546875 Z M 1.9375 -16.546875 "/></g></g><g style="fill:#373643;fill-opacity:1;"><g transform="translate(84.395068, 51.207437)"><path style="stroke:none" d="M 1.9375 0 L 1.9375 -16.546875 L 7.640625 -16.546875 L 7.640625 -14.8125 L 7.71875 -14.8125 C 9.195312 -16.289062 10.773438 -17.03125 12.453125 -17.03125 C 13.273438 -17.03125 14.085938 -16.921875 14.890625 -16.703125 C 15.691406 -16.492188 16.460938 -16.160156 17.203125 -15.703125 C 17.953125 -15.253906 18.554688 -14.613281 19.015625 -13.78125 C 19.484375 -12.957031 19.71875 -12 19.71875 -10.90625 L 19.71875 0 L 14 0 L 14 -9.359375 C 14 -10.210938 13.722656 -10.960938 13.171875 -11.609375 C 12.628906 -12.253906 11.914062 -12.578125 11.03125 -12.578125 C 10.175781 -12.578125 9.394531 -12.242188 8.6875 -11.578125 C 7.988281 -10.910156 7.640625 -10.171875 7.640625 -9.359375 L 7.640625 0 Z M 1.9375 0 "/></g></g><g style="fill:#373643;fill-opacity:1;"><g transform="translate(102.682376, 51.207437)"><path style="stroke:none" d="M 3.0625 -2.046875 C 1.507812 -3.734375 0.734375 -5.800781 0.734375 -8.25 C 0.734375 -10.707031 1.507812 -12.785156 3.0625 -14.484375 C 4.613281 -16.179688 6.582031 -17.03125 8.96875 -17.03125 C 11.164062 -17.03125 12.972656 -16.34375 14.390625 -14.96875 L 14.390625 -27.75 L 20.09375 -27.75 L 20.09375 0 L 14.453125 0 L 14.453125 -1.875 L 14.390625 -1.875 C 12.972656 -0.300781 11.164062 0.484375 8.96875 0.484375 C 6.582031 0.484375 4.613281 -0.359375 3.0625 -2.046875 Z M 7.921875 -11.0625 C 7.179688 -10.332031 6.8125 -9.394531 6.8125 -8.25 C 6.8125 -7.113281 7.164062 -6.1875 7.875 -5.46875 C 8.582031 -4.75 9.519531 -4.390625 10.6875 -4.390625 C 11.800781 -4.390625 12.71875 -4.753906 13.4375 -5.484375 C 14.15625 -6.210938 14.515625 -7.140625 14.515625 -8.265625 C 14.515625 -9.398438 14.144531 -10.332031 13.40625 -11.0625 C 12.664062 -11.800781 11.757812 -12.171875 10.6875 -12.171875 C 9.582031 -12.171875 8.660156 -11.800781 7.921875 -11.0625 Z M 7.921875 -11.0625 "/></g></g><path style=" stroke:none;fill-rule:nonzero;fill:#18cb96;fill-opacity:1;" d="M 146.792969 42.46875 L 138.902344 34.5 C 137.378906 32.960938 134.25 35.808594 136.085938 37.601562 L 141.074219 42.46875 L 135.925781 47.257812 C 134.355469 48.71875 137.261719 51.710938 138.820312 50.199219 Z M 146.792969 42.46875 "/></g></svg>