<svg xmlns="http://www.w3.org/2000/svg" xmlns:xlink="http://www.w3.org/1999/xlink" width="250" zoomAndPan="magnify" viewBox="0 0 187.5 74.999997" height="100" preserveAspectRatio="xMidYMid meet" version="1.2"><defs><clipPath id="9a73863f71"><path d="M 147 17 L 168 17 L 168 38 L 147 38 Z M 147 17 "/></clipPath><clipPath id="bb22fe4885"><path d="M 143.066406 20.75 L 157.347656 7.550781 L 177.148438 28.972656 L 162.867188 42.171875 Z M 143.066406 20.75 "/></clipPath><clipPath id="b51e082dc1"><path d="M 143.066406 20.75 L 157.347656 7.550781 L 177.148438 28.972656 L 162.867188 42.171875 Z M 143.066406 20.75 "/></clipPath><clipPath id="03e1970330"><path d="M 157 8 L 178 8 L 178 29 L 157 29 Z M 157 8 "/></clipPath><clipPath id="075459fe0b"><path d="M 153.261719 11.324219 L 167.542969 -1.875 L 187.34375 19.546875 L 173.0625 32.75 Z M 153.261719 11.324219 "/></clipPath><clipPath id="0dae9ad7fa"><path d="M 153.261719 11.324219 L 167.542969 -1.875 L 187.34375 19.546875 L 173.0625 32.75 Z M 153.261719 11.324219 "/></clipPath></defs><g id="8499099047"><g clip-rule="nonzero" clip-path="url(#9a73863f71)"><g clip-rule="nonzero" clip-path="url(#bb22fe4885)"><g clip-rule="nonzero" clip-path="url(#b51e082dc1)"><path style=" stroke:none;fill-rule:nonzero;fill:#18cb96;fill-opacity:1;" d="M 167.152344 18.398438 L 149.929688 17.632812 C 146.601562 17.484375 146.039062 23.964844 149.980469 24.074219 L 160.699219 24.363281 L 159.878906 35.148438 C 159.632812 38.433594 166.035156 38.777344 166.21875 35.441406 Z M 167.152344 18.398438 "/></g></g></g><g clip-rule="nonzero" clip-path="url(#03e1970330)"><g clip-rule="nonzero" clip-path="url(#075459fe0b)"><g clip-rule="nonzero" clip-path="url(#0dae9ad7fa)"><path style=" stroke:none;fill-rule:nonzero;fill:#18cb96;fill-opacity:1;" d="M 177.347656 8.972656 L 160.125 8.207031 C 156.796875 8.0625 156.234375 14.542969 160.179688 14.648438 L 170.894531 14.9375 L 170.078125 25.722656 C 169.828125 29.007812 176.234375 29.355469 176.414062 26.015625 Z M 177.347656 8.972656 "/></g></g></g><g style="fill:#ffc700;fill-opacity:1;"><g transform="translate(18.447124, 51.125848)"><path style="stroke:none" d="M 10.15625 -3.515625 C 10.71875 -3.828125 11.226562 -3.929688 11.6875 -3.828125 C 12.144531 -3.734375 12.515625 -3.519531 12.796875 -3.1875 C 13.078125 -2.863281 13.21875 -2.476562 13.21875 -2.03125 C 13.21875 -1.707031 13.117188 -1.382812 12.921875 -1.0625 C 12.722656 -0.75 12.414062 -0.484375 12 -0.265625 C 11.457031 0.0351562 10.960938 0.21875 10.515625 0.28125 C 10.078125 0.34375 9.5625 0.375 8.96875 0.375 C 7.375 0.375 6.144531 0.0390625 5.28125 -0.625 C 4.414062 -1.289062 3.820312 -2.148438 3.5 -3.203125 C 3.1875 -4.265625 3.03125 -5.390625 3.03125 -6.578125 L 3.03125 -15.296875 L 1.625 -15.296875 C 0.9375 -15.296875 0.425781 -15.476562 0.09375 -15.84375 C -0.238281 -16.21875 -0.40625 -16.613281 -0.40625 -17.03125 C -0.40625 -17.46875 -0.234375 -17.867188 0.109375 -18.234375 C 0.453125 -18.609375 0.957031 -18.796875 1.625 -18.796875 L 3.03125 -18.796875 L 3.03125 -21.984375 C 3.03125 -22.617188 3.238281 -23.097656 3.65625 -23.421875 C 4.070312 -23.742188 4.550781 -23.90625 5.09375 -23.90625 C 5.613281 -23.90625 6.09375 -23.742188 6.53125 -23.421875 C 6.976562 -23.097656 7.203125 -22.617188 7.203125 -21.984375 L 7.203125 -18.796875 L 10.078125 -18.796875 C 10.722656 -18.796875 11.21875 -18.609375 11.5625 -18.234375 C 11.90625 -17.867188 12.078125 -17.46875 12.078125 -17.03125 C 12.078125 -16.582031 11.90625 -16.179688 11.5625 -15.828125 C 11.21875 -15.472656 10.722656 -15.296875 10.078125 -15.296875 L 7.203125 -15.296875 L 7.203125 -6.578125 C 7.203125 -6.035156 7.238281 -5.507812 7.3125 -5 C 7.382812 -4.5 7.550781 -4.082031 7.8125 -3.75 C 8.070312 -3.414062 8.457031 -3.25 8.96875 -3.25 C 9.164062 -3.25 9.378906 -3.28125 9.609375 -3.34375 C 9.847656 -3.40625 10.03125 -3.460938 10.15625 -3.515625 Z M 10.15625 -3.515625 "/></g></g><g style="fill:#ffc700;fill-opacity:1;"><g transform="translate(31.266166, 51.125848)"><path style="stroke:none" d="M 9.96875 -18.796875 C 10.632812 -18.796875 11.164062 -18.65625 11.5625 -18.375 C 11.957031 -18.09375 12.15625 -17.628906 12.15625 -16.984375 C 12.15625 -16.398438 11.957031 -15.9375 11.5625 -15.59375 C 11.164062 -15.25 10.632812 -15.078125 9.96875 -15.078125 C 8.414062 -15.078125 7.328125 -14.519531 6.703125 -13.40625 C 6.078125 -12.300781 5.765625 -10.800781 5.765625 -8.90625 L 5.765625 -1.890625 C 5.765625 -1.347656 5.566406 -0.894531 5.171875 -0.53125 C 4.773438 -0.175781 4.296875 0 3.734375 0 C 3.085938 0 2.566406 -0.175781 2.171875 -0.53125 C 1.785156 -0.894531 1.59375 -1.347656 1.59375 -1.890625 L 1.59375 -16.921875 C 1.59375 -17.503906 1.816406 -17.960938 2.265625 -18.296875 C 2.722656 -18.628906 3.210938 -18.796875 3.734375 -18.796875 C 4.242188 -18.796875 4.707031 -18.632812 5.125 -18.3125 C 5.550781 -18 5.765625 -17.535156 5.765625 -16.921875 L 5.765625 -16.703125 C 6.304688 -17.410156 6.929688 -17.9375 7.640625 -18.28125 C 8.359375 -18.625 9.132812 -18.796875 9.96875 -18.796875 Z M 9.96875 -18.796875 "/></g></g><g style="fill:#ffc700;fill-opacity:1;"><g transform="translate(42.311954, 51.125848)"><path style="stroke:none" d="M 18.140625 -18.796875 C 18.773438 -18.796875 19.289062 -18.597656 19.6875 -18.203125 C 20.082031 -17.816406 20.28125 -17.328125 20.28125 -16.734375 L 20.28125 -1.890625 C 20.28125 -1.265625 20.050781 -0.789062 19.59375 -0.46875 C 19.132812 -0.15625 18.660156 0 18.171875 0 C 17.628906 0 17.140625 -0.164062 16.703125 -0.5 C 16.273438 -0.832031 16.0625 -1.304688 16.0625 -1.921875 L 16.0625 -2.0625 C 15.050781 -1.082031 14.003906 -0.429688 12.921875 -0.109375 C 11.835938 0.210938 10.832031 0.375 9.90625 0.375 C 7.34375 0.375 5.34375 -0.429688 3.90625 -2.046875 C 2.476562 -3.660156 1.765625 -5.847656 1.765625 -8.609375 L 1.765625 -16.734375 C 1.765625 -17.296875 1.945312 -17.78125 2.3125 -18.1875 C 2.6875 -18.59375 3.207031 -18.796875 3.875 -18.796875 C 4.519531 -18.796875 5.03125 -18.59375 5.40625 -18.1875 C 5.789062 -17.78125 5.984375 -17.296875 5.984375 -16.734375 L 5.984375 -8.53125 C 5.984375 -6.925781 6.34375 -5.65625 7.0625 -4.71875 C 7.789062 -3.789062 8.945312 -3.328125 10.53125 -3.328125 C 11 -3.328125 11.546875 -3.453125 12.171875 -3.703125 C 12.796875 -3.960938 13.40625 -4.351562 14 -4.875 C 14.59375 -5.394531 15.082031 -6.050781 15.46875 -6.84375 C 15.863281 -7.644531 16.0625 -8.585938 16.0625 -9.671875 L 16.0625 -16.734375 C 16.0625 -17.328125 16.234375 -17.816406 16.578125 -18.203125 C 16.929688 -18.597656 17.453125 -18.796875 18.140625 -18.796875 Z M 18.140625 -18.796875 "/></g></g><g style="fill:#ffc700;fill-opacity:1;"><g transform="translate(64.628544, 51.125848)"><path style="stroke:none" d="M 33.546875 -11.078125 C 33.515625 -12.140625 33.238281 -13.082031 32.71875 -13.90625 C 32.207031 -14.726562 31.519531 -15.375 30.65625 -15.84375 C 29.789062 -16.3125 28.84375 -16.546875 27.8125 -16.546875 C 26.53125 -16.546875 25.359375 -16.242188 24.296875 -15.640625 C 23.242188 -15.035156 22.410156 -14.203125 21.796875 -13.140625 C 21.179688 -12.085938 20.875 -10.847656 20.875 -9.421875 L 20.875 -1.296875 C 20.875 -0.898438 20.75 -0.582031 20.5 -0.34375 C 20.25 -0.113281 19.914062 0 19.5 0 C 19.101562 0 18.773438 -0.113281 18.515625 -0.34375 C 18.265625 -0.582031 18.140625 -0.898438 18.140625 -1.296875 L 18.140625 -10.453125 C 18.140625 -11.515625 17.925781 -12.507812 17.5 -13.4375 C 17.082031 -14.375 16.445312 -15.113281 15.59375 -15.65625 C 14.675781 -16.226562 13.613281 -16.515625 12.40625 -16.515625 C 11.195312 -16.515625 10.070312 -16.222656 9.03125 -15.640625 C 7.988281 -15.066406 7.140625 -14.257812 6.484375 -13.21875 C 5.828125 -12.1875 5.5 -10.984375 5.5 -9.609375 L 5.5 -1.25 C 5.5 -0.832031 5.363281 -0.519531 5.09375 -0.3125 C 4.820312 -0.101562 4.515625 0 4.171875 0 C 3.828125 0 3.515625 -0.101562 3.234375 -0.3125 C 2.953125 -0.519531 2.8125 -0.832031 2.8125 -1.25 L 2.8125 -17.390625 C 2.8125 -17.742188 2.9375 -18.046875 3.1875 -18.296875 C 3.445312 -18.554688 3.765625 -18.6875 4.140625 -18.6875 C 4.554688 -18.6875 4.875 -18.554688 5.09375 -18.296875 C 5.320312 -18.046875 5.4375 -17.742188 5.4375 -17.390625 L 5.4375 -15.25 C 6.164062 -16.582031 7.144531 -17.550781 8.375 -18.15625 C 9.613281 -18.757812 10.945312 -19.0625 12.375 -19.0625 C 13.457031 -19.0625 14.492188 -18.890625 15.484375 -18.546875 C 16.484375 -18.203125 17.367188 -17.671875 18.140625 -16.953125 C 18.921875 -16.242188 19.5 -15.332031 19.875 -14.21875 C 20.539062 -15.875 21.597656 -17.09375 23.046875 -17.875 C 24.503906 -18.664062 26.054688 -19.0625 27.703125 -19.0625 C 29.128906 -19.0625 30.488281 -18.757812 31.78125 -18.15625 C 33.070312 -17.550781 34.132812 -16.660156 34.96875 -15.484375 C 35.8125 -14.316406 36.234375 -12.882812 36.234375 -11.1875 L 36.234375 -1.296875 C 36.234375 -0.898438 36.109375 -0.582031 35.859375 -0.34375 C 35.617188 -0.113281 35.289062 0 34.875 0 C 33.988281 0 33.546875 -0.429688 33.546875 -1.296875 Z M 33.546875 -11.078125 "/></g></g><g style="fill:#ffc700;fill-opacity:1;"><g transform="translate(102.679561, 51.125848)"><path style="stroke:none" d="M 20.609375 -9.453125 C 20.609375 -9.054688 20.5 -8.671875 20.28125 -8.296875 C 20.0625 -7.929688 19.566406 -7.75 18.796875 -7.75 L 4.203125 -7.75 C 4.378906 -6.75 4.765625 -5.816406 5.359375 -4.953125 C 5.953125 -4.085938 6.726562 -3.394531 7.6875 -2.875 C 8.644531 -2.363281 9.738281 -2.109375 10.96875 -2.109375 C 11.832031 -2.109375 12.6875 -2.226562 13.53125 -2.46875 C 14.382812 -2.71875 15.171875 -3.113281 15.890625 -3.65625 C 16.203125 -3.945312 16.535156 -4.085938 16.890625 -4.078125 C 17.253906 -4.066406 17.554688 -3.957031 17.796875 -3.75 C 18.046875 -3.539062 18.175781 -3.265625 18.1875 -2.921875 C 18.195312 -2.578125 18.019531 -2.21875 17.65625 -1.84375 C 16.820312 -1.0625 15.816406 -0.488281 14.640625 -0.125 C 13.472656 0.226562 12.285156 0.394531 11.078125 0.375 C 9.128906 0.375 7.4375 -0.0546875 6 -0.921875 C 4.5625 -1.785156 3.445312 -2.957031 2.65625 -4.4375 C 1.875 -5.914062 1.484375 -7.578125 1.484375 -9.421875 C 1.484375 -11.515625 1.9375 -13.273438 2.84375 -14.703125 C 3.75 -16.128906 4.921875 -17.210938 6.359375 -17.953125 C 7.804688 -18.691406 9.316406 -19.0625 10.890625 -19.0625 C 12.566406 -19.0625 14.132812 -18.722656 15.59375 -18.046875 C 17.0625 -17.367188 18.257812 -16.328125 19.1875 -14.921875 C 20.113281 -13.515625 20.585938 -11.691406 20.609375 -9.453125 Z M 4.09375 -10.015625 L 18.03125 -10.015625 C 17.90625 -11.484375 17.484375 -12.703125 16.765625 -13.671875 C 16.054688 -14.648438 15.1875 -15.375 14.15625 -15.84375 C 13.132812 -16.3125 12.109375 -16.546875 11.078125 -16.546875 C 9.921875 -16.546875 8.832031 -16.3125 7.8125 -15.84375 C 6.789062 -15.375 5.945312 -14.648438 5.28125 -13.671875 C 4.613281 -12.703125 4.21875 -11.484375 4.09375 -10.015625 Z M 4.09375 -10.015625 "/></g></g><g style="fill:#ffc700;fill-opacity:1;"><g transform="translate(124.143228, 51.125848)"><path style="stroke:none" d="M 20.609375 -9.453125 C 20.609375 -9.054688 20.5 -8.671875 20.28125 -8.296875 C 20.0625 -7.929688 19.566406 -7.75 18.796875 -7.75 L 4.203125 -7.75 C 4.378906 -6.75 4.765625 -5.816406 5.359375 -4.953125 C 5.953125 -4.085938 6.726562 -3.394531 7.6875 -2.875 C 8.644531 -2.363281 9.738281 -2.109375 10.96875 -2.109375 C 11.832031 -2.109375 12.6875 -2.226562 13.53125 -2.46875 C 14.382812 -2.71875 15.171875 -3.113281 15.890625 -3.65625 C 16.203125 -3.945312 16.535156 -4.085938 16.890625 -4.078125 C 17.253906 -4.066406 17.554688 -3.957031 17.796875 -3.75 C 18.046875 -3.539062 18.175781 -3.265625 18.1875 -2.921875 C 18.195312 -2.578125 18.019531 -2.21875 17.65625 -1.84375 C 16.820312 -1.0625 15.816406 -0.488281 14.640625 -0.125 C 13.472656 0.226562 12.285156 0.394531 11.078125 0.375 C 9.128906 0.375 7.4375 -0.0546875 6 -0.921875 C 4.5625 -1.785156 3.445312 -2.957031 2.65625 -4.4375 C 1.875 -5.914062 1.484375 -7.578125 1.484375 -9.421875 C 1.484375 -11.515625 1.9375 -13.273438 2.84375 -14.703125 C 3.75 -16.128906 4.921875 -17.210938 6.359375 -17.953125 C 7.804688 -18.691406 9.316406 -19.0625 10.890625 -19.0625 C 12.566406 -19.0625 14.132812 -18.722656 15.59375 -18.046875 C 17.0625 -17.367188 18.257812 -16.328125 19.1875 -14.921875 C 20.113281 -13.515625 20.585938 -11.691406 20.609375 -9.453125 Z M 4.09375 -10.015625 L 18.03125 -10.015625 C 17.90625 -11.484375 17.484375 -12.703125 16.765625 -13.671875 C 16.054688 -14.648438 15.1875 -15.375 14.15625 -15.84375 C 13.132812 -16.3125 12.109375 -16.546875 11.078125 -16.546875 C 9.921875 -16.546875 8.832031 -16.3125 7.8125 -15.84375 C 6.789062 -15.375 5.945312 -14.648438 5.28125 -13.671875 C 4.613281 -12.703125 4.21875 -11.484375 4.09375 -10.015625 Z M 4.09375 -10.015625 "/></g></g><g style="fill:#ffc700;fill-opacity:1;"><g transform="translate(145.606896, 51.125848)"><path style="stroke:none" d="M 10.59375 -18.6875 C 11.164062 -18.6875 11.539062 -18.5 11.71875 -18.125 C 11.90625 -17.757812 11.90625 -17.382812 11.71875 -17 C 11.539062 -16.625 11.164062 -16.4375 10.59375 -16.4375 L 6.578125 -16.4375 L 6.578125 -6.390625 C 6.578125 -5.703125 6.632812 -5.023438 6.75 -4.359375 C 6.875 -3.691406 7.140625 -3.140625 7.546875 -2.703125 C 7.953125 -2.273438 8.578125 -2.0625 9.421875 -2.0625 C 9.691406 -2.0625 10.003906 -2.101562 10.359375 -2.1875 C 10.710938 -2.28125 10.976562 -2.375 11.15625 -2.46875 C 11.550781 -2.695312 11.898438 -2.753906 12.203125 -2.640625 C 12.515625 -2.523438 12.75 -2.328125 12.90625 -2.046875 C 13.070312 -1.765625 13.109375 -1.453125 13.015625 -1.109375 C 12.929688 -0.765625 12.679688 -0.484375 12.265625 -0.265625 C 11.796875 -0.015625 11.328125 0.148438 10.859375 0.234375 C 10.390625 0.328125 9.910156 0.375 9.421875 0.375 C 7.941406 0.375 6.804688 0.0546875 6.015625 -0.578125 C 5.234375 -1.222656 4.6875 -2.0625 4.375 -3.09375 C 4.070312 -4.132812 3.921875 -5.234375 3.921875 -6.390625 L 3.921875 -16.4375 L 1.484375 -16.4375 C 0.910156 -16.4375 0.53125 -16.625 0.34375 -17 C 0.164062 -17.382812 0.175781 -17.757812 0.375 -18.125 C 0.570312 -18.5 0.941406 -18.6875 1.484375 -18.6875 L 3.921875 -18.6875 L 3.921875 -23.078125 C 3.921875 -23.523438 4.054688 -23.859375 4.328125 -24.078125 C 4.597656 -24.304688 4.90625 -24.421875 5.25 -24.421875 C 5.59375 -24.421875 5.898438 -24.304688 6.171875 -24.078125 C 6.441406 -23.859375 6.578125 -23.523438 6.578125 -23.078125 L 6.578125 -18.6875 Z M 10.59375 -18.6875 "/></g></g></g></svg>